<?xml version="1.0" encoding="iso-8859-1"?>
<!-- Generator: Adobe Illustrator 19.0.0, SVG Export Plug-In . SVG Version: 6.00 Build 0)  -->
<svg version="1.1" id="Layer_1" xmlns="http://www.w3.org/2000/svg" xmlns:xlink="http://www.w3.org/1999/xlink" x="0px" y="0px"
	 viewBox="0 0 512 512" style="enable-background:new 0 0 512 512;" xml:space="preserve">
<g>
	<g>
		<path d="M256,0C119.49,0,8.828,110.664,8.828,247.172c0,37.913,8.547,73.823,23.799,105.931l82.132,35.31L167.724,512h176.552
			l52.966-123.586l82.132-35.31c15.254-32.108,23.799-68.018,23.799-105.931C503.172,110.664,392.51,0,256,0z M150.069,335.448
			c-39.004,0-70.621-31.619-70.621-70.621c0-39.002,31.617-70.621,70.621-70.621s70.621,31.619,70.621,70.621
			C220.69,303.83,189.073,335.448,150.069,335.448z M293.327,400.215c-8.693,8.166-22.36,7.737-30.526-0.957l-6.801-7.24
			l-6.801,7.24c-8.166,8.693-21.834,9.122-30.528,0.957c-8.693-8.166-9.121-21.832-0.955-30.528L256,332.505l38.284,37.182
			C302.449,378.382,302.02,392.049,293.327,400.215z M361.931,335.448c-39.004,0-70.621-31.619-70.621-70.621
			c0-39.002,31.617-70.621,70.621-70.621s70.621,31.619,70.621,70.621C432.552,303.83,400.935,335.448,361.931,335.448z"/>
	</g>
</g>
<g>
</g>
<g>
</g>
<g>
</g>
<g>
</g>
<g>
</g>
<g>
</g>
<g>
</g>
<g>
</g>
<g>
</g>
<g>
</g>
<g>
</g>
<g>
</g>
<g>
</g>
<g>
</g>
<g>
</g>
</svg>
